<svg width="23" height="23" viewBox="0 0 23 23" fill="none" xmlns="http://www.w3.org/2000/svg">
<path d="M15.8161 17.1882C16.1158 17.6805 16.2057 18.2591 16.0691 18.819C15.9333 19.3782 15.5868 19.8519 15.0945 20.1516L13.3091 21.2383C12.9663 21.4468 12.5817 21.5517 12.1943 21.5517C11.8465 21.5517 11.4957 21.4676 11.1701 21.298C7.42112 19.3538 5.28069 16.4666 4.3384 14.9191C2.25044 11.4892 1.812 8.10966 1.81128 5.87937C1.81128 5.12756 2.19797 4.44187 2.84628 4.04656L4.63237 2.95981C5.124 2.66009 5.70259 2.57025 6.26322 2.70681C6.8224 2.84266 7.29606 3.18837 7.59506 3.68072L8.71631 5.52216C9.33444 6.53847 9.011 7.86744 7.9954 8.48556L7.07037 9.04834C6.79294 9.21725 6.65781 9.5565 6.75053 9.85406C7.056 10.8423 7.48437 11.7918 8.02272 12.6766C8.55962 13.5585 9.20578 14.3736 9.94178 15.0995C10.1696 15.3237 10.5254 15.3604 10.8079 15.1886L11.7322 14.6258C12.7463 14.0063 14.0767 14.3304 14.6956 15.346L15.8168 17.1882H15.8161ZM11.564 8.54881C13.1309 8.79031 14.2083 10.2623 13.9668 11.8285C13.9064 12.2209 14.1752 12.5882 14.5677 12.6486C14.605 12.6543 14.6417 12.6572 14.6783 12.6572C15.0269 12.6572 15.3331 12.4027 15.3877 12.0477C15.75 9.69737 14.1335 7.49081 11.7839 7.12784C11.3922 7.06891 11.0242 7.33628 10.9638 7.728C10.9035 8.12044 11.1723 8.48772 11.564 8.54809V8.54881ZM12.2217 4.28662C11.8328 4.22625 11.4619 4.49506 11.4016 4.8875C11.3412 5.27922 11.61 5.6465 12.0024 5.70759C13.5204 5.94191 14.8559 6.75337 15.7637 7.9925C16.6714 9.23162 17.0423 10.7496 16.808 12.2676C16.7476 12.6593 17.0164 13.0266 17.4089 13.0877C17.4455 13.0935 17.4829 13.0963 17.5196 13.0963C17.8682 13.0963 18.1743 12.8419 18.229 12.4868C18.5222 10.5893 18.0586 8.69184 16.9237 7.14294C15.7888 5.59403 14.1192 4.57987 12.2217 4.28662ZM12.6601 1.44541C12.2691 1.38719 11.9004 1.65384 11.84 2.04628C11.7796 2.438 12.0484 2.80528 12.4409 2.86637C17.1408 3.59159 20.3744 8.00544 19.6492 12.7061C19.5888 13.0978 19.8577 13.4651 20.2501 13.5262C20.2867 13.5319 20.3241 13.5348 20.3608 13.5348C20.7094 13.5348 21.0156 13.2803 21.0702 12.9253C21.9169 7.44194 18.1442 2.29281 12.6601 1.44612V1.44541Z" fill="#D64646"/>
</svg>
